<svg xmlns="http://www.w3.org/2000/svg" width="21" height="21" viewBox="0 0 21 21"><defs><style>.cls-1{font-size:6.32px;fill:#fff;stroke-width:0.5px;font-family:MyriadPro-Regular, Myriad Pro;}.cls-1,.cls-2,.cls-3{stroke:#fff;stroke-miterlimit:10;}.cls-2,.cls-3{fill:none;}.cls-3{stroke-width:2px;}</style></defs><g id="Layer_2" data-name="Layer 2"><g id="Layer_2-2" data-name="Layer 2"><text class="cls-1" transform="translate(14.96 12.82) scale(1.01 1)">$</text><path class="cls-2" d="M15.54,6.93V1.46S15.46.56,15,.52s-1.61,0-1.61,0H1.34a.75.75,0,0,0-.81.66,14.49,14.49,0,0,0,0,1.7.71.71,0,0,0,.67.34"/><path class="cls-2" d="M1.66.52s.43.27.48.57,0,8,0,8V19.69s.22.73.8.79.9-.57.9-.57V18.34s0-.42.67-.39,2.25,0,2.25,0h10s.4-.08.47.66a3.28,3.28,0,0,1,0,.95s-.06.82-.73.89-3.28,0-3.28,0H2.94"/><line class="cls-3" x1="15.54" y1="17.41" x2="15.54" y2="15.57"/><line class="cls-2" x1="7.14" y1="2.96" x2="10.51" y2="2.96"/><line class="cls-2" x1="5.51" y1="4.6" x2="12.19" y2="4.6"/><line class="cls-2" x1="8.82" y1="8.77" x2="11.39" y2="8.77"/><line class="cls-2" x1="3.81" y1="10.44" x2="11.39" y2="10.44"/><line class="cls-2" x1="7.14" y1="12.1" x2="11.39" y2="12.1"/><line class="cls-2" x1="3.81" y1="13.76" x2="11.31" y2="13.76"/><ellipse class="cls-2" cx="16.59" cy="10.96" rx="3.91" ry="3.89"/><line class="cls-2" x1="3.81" y1="12.1" x2="6.32" y2="12.1"/><line class="cls-2" x1="8.02" y1="8.77" x2="3.81" y2="8.77"/></g></g></svg>